<?xml version="1.0"?>
<svg xmlns:rdf="http://www.w3.org/1999/02/22-rdf-syntax-ns#" xmlns="http://www.w3.org/2000/svg" xmlns:cc="http://web.resource.org/cc/" xmlns:xlink="http://www.w3.org/1999/xlink" xmlns:dc="http://purl.org/dc/elements/1.1/" xmlns:svg="http://www.w3.org/2000/svg" id="svg2" viewBox="0 0 447.19 399.01" version="1.0">
  <defs id="defs4">
    <filter id="filter3256">
      <feGaussianBlur id="feGaussianBlur3258" stdDeviation="12.347572"/>
    </filter>
    <linearGradient id="linearGradient3334" x1="213.61" spreadMethod="reflect" gradientUnits="userSpaceOnUse" y1="512.79" gradientTransform="matrix(.99163 -.12912 .10454 .80287 -48.932 -58.797)" x2="318.77" y2="559.96">
      <stop id="stop3302" stop-color="#e0edff" stop-opacity=".5567" offset="0"/>
      <stop id="stop3304" stop-color="#0ff" stop-opacity="0" offset="1"/>
    </linearGradient>
    <linearGradient id="linearGradient3336" x1="258.91" spreadMethod="reflect" gradientUnits="userSpaceOnUse" y1="553.17" gradientTransform="matrix(.99163 -.12912 .10454 .80287 -48.932 -58.797)" x2="323.02" y2="509">
      <stop id="stop3310" stop-color="#b5a4d8" offset="0"/>
      <stop id="stop3312" stop-color="#b5a4d8" stop-opacity="0" offset="1"/>
    </linearGradient>
    <linearGradient id="linearGradient3339" x1="178.94" gradientUnits="userSpaceOnUse" y1="386.9" gradientTransform="matrix(.99163 -.12912 .10454 .80287 -48.932 -58.797)" x2="290.42" y2="472.78">
      <stop id="stop3290" stop-color="#fff" offset="0"/>
      <stop id="stop3292" stop-color="#fff" stop-opacity="0" offset="1"/>
    </linearGradient>
    <linearGradient id="linearGradient3342" x1="-93.588" spreadMethod="reflect" gradientUnits="userSpaceOnUse" y1="864.72" gradientTransform="matrix(.99163 -.12912 .10454 .80287 -48.932 -58.797)" x2="205.81" y2="627.33">
      <stop id="stop3170" stop-color="#f0f" offset="0"/>
      <stop id="stop3176" stop-color="#fff5e8" stop-opacity=".74227" offset=".31818"/>
      <stop id="stop3172" stop-color="#c86eff" offset="1"/>
    </linearGradient>
    <linearGradient id="linearGradient3345" x1="241.67" spreadMethod="reflect" gradientUnits="userSpaceOnUse" y1="563.68" gradientTransform="matrix(.96347 -.12710 .10158 .79031 -37.612 -51.363)" x2="326.35" y2="601.15">
      <stop id="stop3194" stop-color="#b57ce5" offset="0"/>
      <stop id="stop3196" stop-color="#e0f5f2" offset="1"/>
    </linearGradient>
  </defs>
  <g id="layer1" transform="translate(-86.74 -132.91)">
    <g id="g3506">
      <path id="path2187" opacity=".77523" d="m300.46 361.82c-59.33 0.97-116.48 33.87-147.63 84.36-32.44 50.92-36.09 118.67-9.5 172.76 25.69 54.26 80.18 93.62 139.87 100.34 57.36 7.5 117.2-15.07 155.37-58.24 38.46-42.12 54.31-102.92 41.71-158.58-12.85-61.12-59.84-112.93-119.15-131.82-19.44-6.42-40.09-9.34-60.67-8.82zm4.59 95.93c37.17-0.65 72.1 26.46 80.78 62.44 9.26 33.78-5.58 72.03-34.99 90.77-30.05 20.41-73.34 17.59-100.38-6.71-26.64-22.29-36.37-62.43-22.66-94.58 12.32-30.93 43.92-52.26 77.25-51.92z" fill-opacity=".77228" transform="matrix(1.042 .050594 -.17463 .74742 91.473 -69.334)" filter="url(#filter3256)" fill="#002d59"/>
      <path id="path3184" stroke="url(#linearGradient3345)" stroke-width="4.3118" fill="none" d="m278.78 179.33c-76.28 10-142.57 64.37-155.34 127.22-11.92 52.82 12.97 108.73 63.76 139.31 46.65 29.12 112.81 36.73 169.92 17.74 59.57-18.95 107.22-64.47 119.1-116.02 12.06-48.47-6.25-100.37-48.89-132.67-38.33-29.96-94.43-44.02-148.55-35.58zm11.99 85.14c39.58-6.82 80.48 17.5 84.05 50.25 4.69 29.29-20.03 61.44-55.33 69.81-32.29 8.62-69.73-2.12-85.18-26.39-15.17-22.13-11.2-53.46 11.79-73.02 11.82-10.68 27.78-18.15 44.67-20.65z"/>
      <path id="path2160" d="m280.25 179.03c-99.31 12.93-171.42 88.69-160.95 169.1 10.47 80.4 99.58 135.17 198.89 122.24s171.42-88.69 160.95-169.1l-1.09-6.64c-14.57-77.41-101.39-128.16-197.8-115.6zm10.46 80.29c43.27-5.64 82.24 17.15 88.78 51.89l0.49 2.97c4.69 36.09-27.67 70.1-72.25 75.9-44.57 5.81-84.57-18.78-89.27-54.87-4.69-36.08 27.67-70.09 72.25-75.89z" fill="url(#linearGradient3342)"/>
      <path id="path2191" opacity=".73394" fill="url(#linearGradient3339)" d="m276.43 183.05c-66.32 9.3-125.2 52.07-145.34 104.79-12.68 32.39-11.08 67.81 4.21 98.19 23.1-18.52 53.4-28.74 81.56-40.83-9.27-27.36 6.11-59.22 35.49-76.02 23.31-13.95 55.06-17.85 80.85-9.53 9.56-15.74 47.59 0.94 52.36-15.84 2.72-7.82-27.08-49.16-22.01-56.24-27.62-7.47-57.76-9.01-87.12-4.52z"/>
      <path id="path3296" stroke="url(#linearGradient3336)" stroke-width="1.3497" fill="url(#linearGradient3334)" d="m291.74 267.88c-39.17 5.1-67.61 34.97-63.48 66.68s39.27 53.31 78.44 48.21c39.16-5.1 67.6-34.97 63.47-66.68l-0.43-2.63c-5.74-30.52-39.98-50.53-78-45.58zm4.12 31.66c17.06-2.22 32.44 6.77 35.01 20.47l0.19 1.17c1.86 14.23-10.91 27.64-28.49 29.93-17.57 2.29-33.35-7.41-35.2-21.64s10.91-27.64 28.49-29.93z"/>
    </g>
  </g>
  <metadata>
    <rdf:RDF>
      <cc:Work>
        <dc:format>image/svg+xml</dc:format>
        <dc:type rdf:resource="http://purl.org/dc/dcmitype/StillImage"/>
        <cc:license rdf:resource="http://creativecommons.org/licenses/publicdomain/"/>
        <dc:publisher>
          <cc:Agent rdf:about="http://openclipart.org/">
            <dc:title>Openclipart</dc:title>
          </cc:Agent>
        </dc:publisher>
        <dc:title>CD/DVD -yet another one</dc:title>
        <dc:date>2007-10-29T05:21:58</dc:date>
        <dc:description>just a CD or DVD</dc:description>
        <dc:source>http://openclipart.org/detail/7445/cd/dvd--yet-another-one-by-tomas_arad</dc:source>
        <dc:creator>
          <cc:Agent>
            <dc:title>tomas_arad</dc:title>
          </cc:Agent>
        </dc:creator>
        <dc:subject>
          <rdf:Bag>
            <rdf:li>accessory</rdf:li>
            <rdf:li>cdrom</rdf:li>
            <rdf:li>clip art</rdf:li>
            <rdf:li>clipart</rdf:li>
            <rdf:li>computer</rdf:li>
            <rdf:li>data</rdf:li>
            <rdf:li>dvd</rdf:li>
            <rdf:li>image</rdf:li>
            <rdf:li>media</rdf:li>
            <rdf:li>office</rdf:li>
            <rdf:li>png</rdf:li>
            <rdf:li>public domain</rdf:li>
            <rdf:li>svg</rdf:li>
          </rdf:Bag>
        </dc:subject>
      </cc:Work>
      <cc:License rdf:about="http://creativecommons.org/licenses/publicdomain/">
        <cc:permits rdf:resource="http://creativecommons.org/ns#Reproduction"/>
        <cc:permits rdf:resource="http://creativecommons.org/ns#Distribution"/>
        <cc:permits rdf:resource="http://creativecommons.org/ns#DerivativeWorks"/>
      </cc:License>
    </rdf:RDF>
  </metadata>
</svg>
