<?xml version="1.0" encoding="UTF-8" standalone="no"?>
<svg
   width="174"
   height="26"
   viewBox="0 0 174 26"
   fill="none"
   version="1.1"
   id="svg140"
   sodipodi:docname="dark-logo.svg"
   inkscape:version="1.2.1 (9c6d41e4, 2022-07-14)"
   xmlns:inkscape="http://www.inkscape.org/namespaces/inkscape"
   xmlns:sodipodi="http://sodipodi.sourceforge.net/DTD/sodipodi-0.dtd"
   xmlns="http://www.w3.org/2000/svg"
   xmlns:svg="http://www.w3.org/2000/svg">
  <defs
     id="defs144" />
  <sodipodi:namedview
     id="namedview142"
     pagecolor="#ffffff"
     bordercolor="#000000"
     borderopacity="0.25"
     inkscape:showpageshadow="2"
     inkscape:pageopacity="0.0"
     inkscape:pagecheckerboard="0"
     inkscape:deskcolor="#d1d1d1"
     showgrid="false"
     showguides="true"
     inkscape:zoom="4.1177998"
     inkscape:cx="98.474919"
     inkscape:cy="9.4710773"
     inkscape:window-width="1367"
     inkscape:window-height="430"
     inkscape:window-x="0"
     inkscape:window-y="25"
     inkscape:window-maximized="0"
     inkscape:current-layer="svg140">
    <sodipodi:guide
       position="166.59382,42.756521"
       orientation="1,0"
       id="guide1187"
       inkscape:locked="false" />
    <sodipodi:guide
       position="45.898298,39.356647"
       orientation="1,0"
       id="guide1189"
       inkscape:locked="false" />
  </sodipodi:namedview>
  <path
     d="m 20.1369,26 c 2.7614,0 5.0473,-2.2575 4.5363,-4.9712 C 24.3528,19.3274 23.8679,17.6594 23.2235,16.0502 21.9602,12.8958 20.1087,10.0295 17.7745,7.61522 15.4403,5.2009 12.6692,3.28575 9.61949,1.97913 8.11383,1.33406 6.55481,0.843538 4.96489,0.512196 2.26154,-0.0511821 0,2.23858 0,5 v 16 c 0,2.7614 2.23858,5 5,5 z"
     fill="#615dff"
     id="path134"
     style="display:inline" />
  <g
     style="mix-blend-mode:multiply"
     id="g138">
    <path
       d="M13.7013 26C10.9399 26 8.65395 23.7425 9.16502 21.0288C9.48544 19.3274 9.97031 17.6594 10.6147 16.0502C11.878 12.8958 13.7295 10.0295 16.0637 7.61522C18.3979 5.2009 21.169 3.28575 24.2187 1.97913C25.7244 1.33406 27.2834 0.843538 28.8733 0.512196C31.5767 -0.0511821 33.8382 2.23858 33.8382 5V21C33.8382 23.7614 31.5996 26 28.8382 26H13.7013Z"
       fill="#3DD9EB"
       id="path136" />
  </g>
  <g
     aria-label=".Homelab."
     id="text529"
     style="font-weight:bold;font-size:24px;font-family:'Plus Jakarta Sans';-inkscape-font-specification:'Plus Jakarta Sans Bold';display:inline;fill:#000000;stroke:#f2f2f2;stroke-width:0.472849;stop-color:#000000">
    <path
       d="m 47.914505,23 v -3.12 h 2.76 V 23 Z"
       style="font-weight:600;-inkscape-font-specification:'Plus Jakarta Sans Semi-Bold';stroke:#000000"
       id="path1191" />
    <path
       d="M 55.306462,23 V 5.12 h 2.832 v 7.872 h 8.28 V 5.12 h 2.808 V 23 h -2.808 v -7.488 h -8.28 V 23 Z"
       style="font-weight:600;-inkscape-font-specification:'Plus Jakarta Sans Semi-Bold';stroke:#000000"
       id="path1193" />
    <path
       d="m 78.922444,23.288 q -1.872,0 -3.432,-0.888 -1.536,-0.888 -2.448,-2.424 -0.912,-1.536 -0.912,-3.48 0,-1.968 0.912,-3.48 0.912,-1.536 2.448,-2.4 1.536,-0.888 3.432,-0.888 1.92,0 3.432,0.888 1.536,0.864 2.424,2.4 0.912,1.512 0.912,3.48 0,1.968 -0.912,3.504 -0.912,1.536 -2.448,2.424 -1.536,0.864 -3.408,0.864 z m 0,-2.52 q 1.152,0 2.04,-0.552 0.888,-0.552 1.392,-1.512 0.528,-0.984 0.528,-2.208 0,-1.224 -0.528,-2.184 -0.504,-0.96 -1.392,-1.512 -0.888,-0.552 -2.04,-0.552 -1.128,0 -2.04,0.552 -0.888,0.552 -1.416,1.512 -0.504,0.96 -0.504,2.184 0,1.224 0.504,2.208 0.528,0.96 1.416,1.512 0.912,0.552 2.04,0.552 z"
       style="font-weight:600;-inkscape-font-specification:'Plus Jakarta Sans Semi-Bold';stroke:#000000"
       id="path1195" />
    <path
       d="M 88.330441,23 V 10.016 h 2.592 v 2.808 l -0.336,-0.432 q 0.408,-1.32 1.488,-1.992 1.08,-0.672 2.472,-0.672 1.56,0 2.76,0.84 1.224,0.816 1.632,2.184 l -0.768,0.072 q 0.576,-1.56 1.752,-2.328 1.199999,-0.768 2.735999,-0.768 1.344,0 2.424,0.624 1.104,0.624 1.752,1.728 0.648,1.104 0.648,2.52 V 23 h -2.712 v -7.656 q 0,-0.984 -0.36,-1.656 -0.336,-0.696 -0.96,-1.056 -0.6,-0.384 -1.416,-0.384 -0.816,0 -1.44,0.384 -0.623999,0.36 -0.983999,1.056 -0.36,0.696 -0.36,1.656 V 23 h -2.688 v -7.656 q 0,-0.984 -0.36,-1.656 -0.336,-0.696 -0.96,-1.056 -0.6,-0.384 -1.44,-0.384 -0.816,0 -1.44,0.384 -0.624,0.36 -0.984,1.056 -0.336,0.696 -0.336,1.656 V 23 Z"
       style="font-weight:600;-inkscape-font-specification:'Plus Jakarta Sans Semi-Bold';stroke:#000000"
       id="path1197" />
    <path
       d="m 116.48241,23.288 q -1.944,0 -3.456,-0.888 -1.488,-0.912 -2.328,-2.448 -0.84,-1.56 -0.84,-3.48 0,-1.968 0.84,-3.48 0.864,-1.512 2.304,-2.376 1.44,-0.888 3.264,-0.888 1.464,0 2.616,0.504 1.152,0.504 1.944,1.392 0.792,0.864 1.2,1.992 0.432,1.128 0.432,2.4 0,0.312 -0.024,0.648 -0.024,0.336 -0.096,0.624 h -10.344 v -2.16 h 8.808 l -1.296,0.984 q 0.24,-1.176 -0.168,-2.088 -0.384,-0.936 -1.2,-1.464 -0.792,-0.552 -1.872,-0.552 -1.08,0 -1.92,0.552 -0.84,0.528 -1.296,1.536 -0.456,0.984 -0.36,2.4 -0.12,1.32 0.36,2.304 0.504,0.984 1.392,1.536 0.912,0.552 2.064,0.552 1.176,0 1.992,-0.528 0.84,-0.528 1.32,-1.368 l 2.208,1.08 q -0.384,0.912 -1.2,1.656 -0.792,0.72 -1.92,1.152 -1.104,0.408 -2.424,0.408 z"
       style="font-weight:600;-inkscape-font-specification:'Plus Jakarta Sans Semi-Bold';stroke:#000000"
       id="path1199" />
    <path
       d="M 125.09839,23 V 4.832 h 2.712 V 23 Z"
       style="font-weight:600;-inkscape-font-specification:'Plus Jakarta Sans Semi-Bold';stroke:#000000"
       id="path1201" />
    <path
       d="m 134.86636,23.288 q -1.32,0 -2.328,-0.456 -0.984,-0.48 -1.536,-1.296 -0.552,-0.84 -0.552,-1.968 0,-1.056 0.456,-1.896 0.48,-0.84 1.464,-1.416 0.984,-0.576 2.472,-0.816 l 4.512,-0.744 v 2.136 l -3.984,0.696 q -1.08,0.192 -1.584,0.696 -0.504,0.48 -0.504,1.248 0,0.744 0.552,1.224 0.576,0.456 1.464,0.456 1.104,0 1.92,-0.48 0.84,-0.48 1.296,-1.272 0.456,-0.816 0.456,-1.8 v -3.336 q 0,-0.96 -0.72,-1.56 -0.696,-0.624 -1.872,-0.624 -1.08,0 -1.896,0.576 -0.792,0.552 -1.176,1.44 l -2.256,-1.128 q 0.36,-0.96 1.176,-1.68 0.816,-0.744 1.896,-1.152 1.104,-0.408 2.328,-0.408 1.536,0 2.712,0.576 1.2,0.576 1.848,1.608 0.672,1.008 0.672,2.352 V 23 h -2.592 v -2.352 l 0.552,0.072 q -0.456,0.792 -1.176,1.368 -0.696,0.576 -1.608,0.888 -0.888,0.312 -1.992,0.312 z"
       style="font-weight:600;-inkscape-font-specification:'Plus Jakarta Sans Semi-Bold';stroke:#000000"
       id="path1203" />
    <path
       d="m 151.78634,23.288 q -1.512,0 -2.76,-0.624 -1.224,-0.624 -1.896,-1.8 l 0.312,-0.504 V 23 h -2.592 V 4.832 h 2.712 v 7.872 l -0.432,-0.624 q 0.72,-1.104 1.92,-1.728 1.2,-0.624 2.736,-0.624 1.848,0 3.312,0.888 1.488,0.888 2.328,2.424 0.864,1.536 0.864,3.456 0,1.92 -0.864,3.456 -0.84,1.536 -2.304,2.448 -1.464,0.888 -3.336,0.888 z m -0.264,-2.52 q 1.152,0 2.04,-0.552 0.888,-0.552 1.392,-1.512 0.528,-0.984 0.528,-2.208 0,-1.224 -0.528,-2.184 -0.504,-0.96 -1.392,-1.512 -0.888,-0.552 -2.04,-0.552 -1.128,0 -2.04,0.552 -0.888,0.552 -1.416,1.512 -0.504,0.96 -0.504,2.184 0,1.224 0.504,2.208 0.528,0.96 1.416,1.512 0.912,0.552 2.04,0.552 z"
       style="font-weight:600;-inkscape-font-specification:'Plus Jakarta Sans Semi-Bold';stroke:#000000"
       id="path1205" />
    <path
       d="m 162.13029,23 v -3.12 h 2.76 V 23 Z"
       style="font-weight:600;-inkscape-font-specification:'Plus Jakarta Sans Semi-Bold';stroke:#000000"
       id="path1207" />
  </g>
</svg>
