<?xml version="1.0" encoding="UTF-8" standalone="no"?>
<svg
   width="174"
   height="26"
   viewBox="0 0 174 26"
   fill="none"
   version="1.1"
   id="svg138"
   sodipodi:docname="light-logo.svg"
   inkscape:version="1.2.1 (9c6d41e4, 2022-07-14)"
   xmlns:inkscape="http://www.inkscape.org/namespaces/inkscape"
   xmlns:sodipodi="http://sodipodi.sourceforge.net/DTD/sodipodi-0.dtd"
   xmlns="http://www.w3.org/2000/svg"
   xmlns:svg="http://www.w3.org/2000/svg">
  <defs
     id="defs142" />
  <sodipodi:namedview
     id="namedview140"
     pagecolor="#ffffff"
     bordercolor="#000000"
     borderopacity="0.25"
     inkscape:showpageshadow="2"
     inkscape:pageopacity="0.0"
     inkscape:pagecheckerboard="0"
     inkscape:deskcolor="#d1d1d1"
     showgrid="false"
     inkscape:zoom="3.9808464"
     inkscape:cx="87.04179"
     inkscape:cy="0.25120286"
     inkscape:window-width="1367"
     inkscape:window-height="430"
     inkscape:window-x="0"
     inkscape:window-y="25"
     inkscape:window-maximized="0"
     inkscape:current-layer="svg138" />
  <path
     d="M20.1369 26C22.8983 26 25.1842 23.7425 24.6732 21.0288C24.3528 19.3274 23.8679 17.6594 23.2235 16.0502C21.9602 12.8958 20.1087 10.0295 17.7745 7.61522C15.4403 5.2009 12.6692 3.28575 9.61948 1.97913C8.11383 1.33406 6.55481 0.843538 4.96489 0.512196C2.26154 -0.0511822 0 2.23858 0 5V21C0 23.7614 2.23858 26 5 26H20.1369Z"
     fill="#615DFF"
     id="path134" />
  <path
     d="M13.7013 26C10.9398 26 8.65395 23.7425 9.16502 21.0288C9.48544 19.3274 9.97031 17.6594 10.6147 16.0502C11.878 12.8958 13.7295 10.0295 16.0637 7.61522C18.3979 5.2009 21.169 3.28575 24.2187 1.97913C25.7244 1.33406 27.2834 0.843538 28.8733 0.512196C31.5767 -0.0511822 33.8382 2.23858 33.8382 5V21C33.8382 23.7614 31.5996 26 28.8382 26H13.7013Z"
     fill="#3DD9EB"
     id="path136" />
  <g
     aria-label=".Homelab."
     id="text419"
     style="font-weight:600;font-size:24px;font-family:'Plus Jakarta Sans';-inkscape-font-specification:'Plus Jakarta Sans Semi-Bold';display:inline;fill:#f2f2f2;stroke:#f2f2f2;stroke-width:0.472849;stop-color:#000000">
    <path
       d="m 47.182476,22.763575 v -3.36 h 3.168 v 3.36 z"
       id="path1086" />
    <path
       d="M 55.030437,22.763575 V 4.8835746 h 3.264 v 7.8000004 h 7.608 V 4.8835746 h 3.288 V 22.763575 h -3.288 v -7.2 h -7.608 v 7.2 z"
       id="path1088" />
    <path
       d="m 78.742432,23.051575 q -1.92,0 -3.504,-0.888 -1.56,-0.888 -2.496,-2.424 -0.912,-1.536 -0.912,-3.504 0,-1.968 0.912,-3.504 0.936,-1.536 2.496,-2.424 1.56,-0.8880004 3.504,-0.8880004 1.92,0 3.48,0.8880004 1.56,0.888 2.472,2.424 0.936,1.512 0.936,3.504 0,1.968 -0.936,3.504 -0.936,1.536 -2.496,2.424 -1.56,0.888 -3.456,0.888 z m 0,-2.88 q 1.056,0 1.848,-0.504 0.816,-0.504 1.272,-1.392 0.48,-0.912 0.48,-2.04 0,-1.152 -0.48,-2.016 -0.456,-0.888 -1.272,-1.392 -0.792,-0.528 -1.848,-0.528 -1.08,0 -1.896,0.528 -0.816,0.504 -1.296,1.392 -0.456,0.864 -0.456,2.016 0,1.128 0.456,2.04 0.48,0.888 1.296,1.392 0.816,0.504 1.896,0.504 z"
       id="path1090" />
    <path
       d="M 88.006397,22.763575 V 9.7075746 h 2.952 v 3.0240004 l -0.336,-0.504 q 0.36,-1.416 1.44,-2.112 1.08,-0.6960004 2.544,-0.6960004 1.608,0 2.832,0.8400004 1.224,0.84 1.584,2.208 l -0.888,0.072 q 0.6,-1.56 1.8,-2.328 1.200003,-0.7920004 2.760003,-0.7920004 1.392,0 2.472,0.6240004 1.104,0.624 1.728,1.752 0.624,1.104 0.624,2.568 v 8.4 h -3.144 v -7.656 q 0,-0.864 -0.312,-1.488 -0.312,-0.624 -0.864,-0.96 -0.552,-0.36 -1.344,-0.36 -0.744,0 -1.32,0.36 -0.576003,0.336 -0.888003,0.96 -0.312,0.624 -0.312,1.488 v 7.656 h -3.144 v -7.656 q 0,-0.864 -0.312,-1.488 -0.312,-0.624 -0.888,-0.96 -0.552,-0.36 -1.32,-0.36 -0.744,0 -1.32,0.36 -0.576,0.336 -0.888,0.96 -0.312,0.624 -0.312,1.488 v 7.656 z"
       id="path1092" />
    <path
       d="m 116.37439,23.051575 q -2.016,0 -3.528,-0.912 -1.512,-0.912 -2.352,-2.472 -0.84,-1.56 -0.84,-3.456 0,-1.968 0.84,-3.48 0.864,-1.536 2.328,-2.424 1.488,-0.8880004 3.312,-0.8880004 1.536,0 2.688,0.504 1.176,0.5040004 1.992,1.3920004 0.816,0.888 1.248,2.04 0.432,1.128 0.432,2.448 0,0.336 -0.048,0.696 -0.024,0.36 -0.12,0.624 h -10.08 v -2.4 h 8.304 l -1.488,1.128 q 0.216,-1.104 -0.12,-1.968 -0.312,-0.864 -1.056,-1.368 -0.72,-0.504 -1.752,-0.504 -0.984,0 -1.752,0.504 -0.768,0.48 -1.176,1.44 -0.384,0.936 -0.288,2.28 -0.096,1.2 0.312,2.136 0.432,0.912 1.248,1.416 0.84,0.504 1.92,0.504 1.08,0 1.824,-0.456 0.768,-0.456 1.2,-1.224 l 2.544,1.248 q -0.384,0.936 -1.2,1.656 -0.816,0.72 -1.944,1.128 -1.104,0.408 -2.448,0.408 z"
       id="path1094" />
    <path
       d="M 124.87038,22.763575 V 4.5955746 h 3.144 V 22.763575 Z"
       id="path1096" />
    <path
       d="m 134.87835,23.051575 q -1.368,0 -2.376,-0.456 -1.008,-0.456 -1.56,-1.296 -0.552,-0.864 -0.552,-1.992 0,-1.08 0.48,-1.92 0.48,-0.864 1.488,-1.44 1.008,-0.576 2.544,-0.816 l 4.272,-0.696 v 2.4 l -3.672,0.624 q -0.936,0.168 -1.392,0.6 -0.456,0.432 -0.456,1.128 0,0.672 0.504,1.08 0.528,0.384 1.296,0.384 0.984,0 1.728,-0.408 0.768,-0.432 1.176,-1.176 0.432,-0.744 0.432,-1.632 v -3.36 q 0,-0.84 -0.672,-1.392 -0.648,-0.576 -1.728,-0.576 -1.008,0 -1.8,0.552 -0.768,0.528 -1.128,1.416 l -2.568,-1.248 q 0.384,-1.032 1.2,-1.776 0.84,-0.768 1.968,-1.2000004 1.128,-0.432 2.448,-0.432 1.608,0 2.832,0.6000004 1.224,0.576 1.896,1.632 0.696,1.032 0.696,2.424 v 8.688 h -2.976 v -2.232 l 0.672,-0.048 q -0.504,0.84 -1.2,1.416 -0.696,0.552 -1.584,0.864 -0.888,0.288 -1.968,0.288 z"
       id="path1098" />
    <path
       d="m 151.96635,23.051575 q -1.416,0 -2.616,-0.552 -1.176,-0.576 -1.872,-1.632 l 0.312,-0.624 v 2.52 h -2.952 V 4.5955746 h 3.144 v 7.7040004 l -0.48,-0.648 q 0.672,-1.056 1.824,-1.632 1.152,-0.6000004 2.664,-0.6000004 1.848,0 3.336,0.9120004 1.488,0.912 2.352,2.448 0.888,1.536 0.888,3.456 0,1.896 -0.864,3.456 -0.864,1.56 -2.352,2.472 -1.488,0.888 -3.384,0.888 z m -0.36,-2.88 q 1.08,0 1.92,-0.504 0.84,-0.504 1.296,-1.392 0.48,-0.888 0.48,-2.04 0,-1.152 -0.48,-2.016 -0.456,-0.888 -1.296,-1.392 -0.84,-0.528 -1.92,-0.528 -1.032,0 -1.872,0.504 -0.816,0.504 -1.296,1.416 -0.456,0.888 -0.456,2.016 0,1.152 0.456,2.04 0.48,0.888 1.296,1.392 0.84,0.504 1.872,0.504 z"
       id="path1100" />
    <path
       d="m 162.45433,22.763575 v -3.36 h 3.168 v 3.36 z"
       id="path1102" />
  </g>
</svg>
